<?xml version="1.0" encoding="UTF-8"?>
<svg id="Calque_2" data-name="Calque 2" xmlns="http://www.w3.org/2000/svg" viewBox="0 0 124.93 14.21">
  <defs>
    <style>
      .cls-1 {
        fill: #2fad66;
      }

      .cls-2 {
        fill: #ededed;
      }
    </style>
  </defs>
  <g id="Calque_2-2" data-name="Calque 2">
    <g>
      <path class="cls-2" d="M0,13.98V.23h5.19l3.12,9.38L11.39.23h5.2v13.74h-3.22V3.16l-3.41,10.82h-3.34L3.22,3.16v10.82H0Z"/>
      <path class="cls-2" d="M20.02.23h3.47v7.44c0,1.18.04,1.95.13,2.3.15.56.5,1.01,1.06,1.35s1.32.51,2.29.51,1.73-.16,2.23-.48c.5-.32.8-.72.9-1.19s.15-1.25.15-2.33V.23h3.47v7.22c0,1.65-.09,2.82-.28,3.5-.19.68-.53,1.26-1.04,1.73s-1.18.84-2.02,1.12-1.95.42-3.3.42c-1.64,0-2.88-.15-3.73-.46-.85-.3-1.52-.7-2.01-1.18s-.82-.99-.97-1.52c-.23-.79-.34-1.95-.34-3.49V.23Z"/>
      <path class="cls-2" d="M35.88,13.98v-2.5l9.02-8.92h-8V.23h12.57v2.16l-9.41,9.27h9.77v2.32h-13.96Z"/>
      <path class="cls-2" d="M51.93,13.98V.23h3.47v13.74h-3.47Z"/>
      <path class="cls-1" d="M57.91,13.98L61.51.23h5.87c1.27,0,2.16.03,2.67.09.84.09,1.56.28,2.14.56s1.03.66,1.34,1.12.46.99.46,1.56c0,.76-.27,1.42-.8,1.98-.53.56-1.35.98-2.46,1.27.88.19,1.57.54,2.07,1.04s.74,1.06.74,1.68c0,.83-.29,1.61-.88,2.35s-1.39,1.27-2.43,1.6-2.44.49-4.23.49h-8.1ZM62.03,11.77h3.41c1.43,0,2.39-.07,2.88-.22.49-.15.88-.39,1.17-.73.29-.34.44-.69.44-1.07,0-.46-.21-.83-.63-1.13s-1.12-.45-2.11-.45h-4.22l-.94,3.59ZM63.59,5.79h2.7c1.21,0,2.08-.07,2.61-.21.53-.14.93-.36,1.2-.67s.4-.65.4-1-.12-.64-.38-.86c-.25-.23-.61-.38-1.07-.45-.26-.04-.88-.06-1.86-.06h-2.74l-.86,3.25Z"/>
      <path class="cls-1" d="M86.52,10.94h-6.81l-2.06,3.04h-3.63L83.73.23h3.93l2.79,13.74h-3.35l-.57-3.04ZM86.09,8.65l-1-5.53-4.15,5.53h5.14Z"/>
      <path class="cls-1" d="M93.14,9.53l3.36-.14c.05.86.23,1.43.55,1.73.52.49,1.47.73,2.86.73,1.16,0,1.99-.17,2.51-.5s.77-.73.77-1.2c0-.41-.21-.75-.63-1.03-.3-.21-1.11-.54-2.44-1s-2.3-.85-2.92-1.16c-.61-.31-1.1-.71-1.45-1.2-.35-.49-.53-1.07-.53-1.73,0-1.16.52-2.12,1.57-2.88,1.05-.76,2.56-1.14,4.55-1.14s3.58.38,4.68,1.13,1.71,1.76,1.82,3.02l-3.39.12c-.09-.66-.38-1.16-.89-1.51-.51-.35-1.26-.52-2.25-.52s-1.67.14-2.09.41c-.42.28-.63.62-.63,1.04,0,.39.19.72.57.97.38.26,1.23.62,2.54,1.08,1.98.68,3.23,1.23,3.77,1.66.8.62,1.21,1.43,1.21,2.41,0,1.21-.6,2.25-1.8,3.11s-2.87,1.29-5.01,1.29c-1.48,0-2.76-.2-3.84-.6-1.08-.4-1.85-.95-2.29-1.65s-.65-1.52-.62-2.44Z"/>
      <path class="cls-1" d="M108.61,13.98L112.2.23h12.74l-.6,2.3h-9.2l-.82,3.12h8.89l-.6,2.3h-8.89l-1.08,3.73h10l-.61,2.3h-13.42Z"/>
    </g>
  </g>
</svg>