<svg width="100" height="32" viewBox="0 0 100 32" fill="none" xmlns="http://www.w3.org/2000/svg">
  <rect width="32" height="32" rx="8" fill="#2FAD66"/>
  <path d="M8 24V8H16C20 8 22 10 22 14C22 16 21 17 19 18C21 19 22 20 22 22C22 26 20 24 16 24H8ZM12 12V16H16C17 16 18 15 18 14C18 13 17 12 16 12H12ZM12 20V22H16C17 22 18 21 18 20C18 19 17 20 16 20H12Z" fill="white"/>
  <text x="40" y="20" font-family="system-ui, -apple-system, sans-serif" font-size="14" font-weight="600" fill="currentColor">MUZIBASE</text>
</svg>
