<?xml version="1.0" encoding="UTF-8"?>
<svg id="Calque_2" data-name="Calque 2" xmlns="http://www.w3.org/2000/svg" viewBox="0 0 156.36 14.22">
  <defs>
    <style>
      .cls-1 {
        fill: #bfbfbf;
      }

      .cls-2 {
        fill: #ededed;
      }
    </style>
  </defs>
  <g id="Calque_2-2" data-name="Calque 2">
    <g>
      <g>
        <path class="cls-2" d="M0,13.98V.23h5.19l3.12,9.38L11.39.23h5.2v13.75h-3.22V3.16l-3.41,10.82h-3.34L3.22,3.16v10.82H0Z"/>
        <path class="cls-2" d="M20.02.23h3.47v7.45c0,1.18.04,1.95.13,2.3.15.56.5,1.01,1.06,1.35.56.34,1.32.51,2.29.51s1.73-.16,2.23-.48c.5-.32.8-.72.9-1.19.1-.47.15-1.25.15-2.34V.23h3.47v7.22c0,1.65-.09,2.82-.28,3.5s-.53,1.26-1.04,1.73-1.18.84-2.02,1.12c-.84.28-1.95.42-3.31.42-1.64,0-2.89-.15-3.73-.45-.85-.3-1.52-.7-2.01-1.18-.49-.48-.82-.99-.97-1.52-.23-.79-.34-1.95-.34-3.49V.23Z"/>
        <path class="cls-2" d="M35.89,13.98v-2.5l9.03-8.92h-8.01V.23h12.58v2.16l-9.41,9.28h9.78v2.32h-13.96Z"/>
        <path class="cls-2" d="M51.94,13.98V.23h3.47v13.75h-3.47Z"/>
      </g>
      <g>
        <path class="cls-1" d="M58.08,9.53l3.36-.14c.05.86.23,1.44.55,1.73.52.49,1.47.73,2.86.73,1.16,0,1.99-.17,2.51-.5.52-.33.77-.73.77-1.2,0-.41-.21-.75-.63-1.03-.3-.21-1.11-.54-2.44-1-1.33-.46-2.31-.85-2.92-1.16-.61-.31-1.1-.71-1.45-1.2s-.53-1.07-.53-1.73c0-1.16.52-2.12,1.57-2.88,1.05-.76,2.56-1.14,4.55-1.14s3.58.38,4.68,1.13c1.11.76,1.71,1.76,1.82,3.02l-3.39.12c-.09-.66-.38-1.16-.89-1.51-.51-.35-1.26-.52-2.25-.52s-1.67.14-2.09.41-.63.62-.63,1.04c0,.39.19.72.57.98.38.26,1.23.62,2.54,1.08,1.98.68,3.24,1.23,3.77,1.66.8.63,1.21,1.43,1.21,2.41,0,1.21-.6,2.25-1.8,3.11-1.2.86-2.87,1.29-5.01,1.29-1.48,0-2.76-.2-3.84-.6-1.08-.4-1.85-.95-2.29-1.66-.45-.71-.65-1.52-.62-2.44Z"/>
        <path class="cls-1" d="M82.2,13.98h-3.53l1.4-5.35L75.33.23h3.76l2.13,3.88c.51.93.85,1.6,1.02,2.02.29-.41.63-.84,1.01-1.29l1.63-1.82,2.43-2.79h4.1l-7.88,8.66-1.34,5.09Z"/>
        <path class="cls-1" d="M90.11,9.53l3.36-.14c.05.86.23,1.44.55,1.73.52.49,1.47.73,2.86.73,1.16,0,1.99-.17,2.51-.5.52-.33.77-.73.77-1.2,0-.41-.21-.75-.63-1.03-.3-.21-1.11-.54-2.44-1-1.33-.46-2.31-.85-2.92-1.16-.61-.31-1.1-.71-1.45-1.2s-.53-1.07-.53-1.73c0-1.16.52-2.12,1.57-2.88,1.05-.76,2.56-1.14,4.55-1.14s3.58.38,4.68,1.13c1.11.76,1.71,1.76,1.82,3.02l-3.39.12c-.09-.66-.38-1.16-.89-1.51-.51-.35-1.26-.52-2.25-.52s-1.67.14-2.09.41-.63.62-.63,1.04c0,.39.19.72.57.98.38.26,1.23.62,2.54,1.08,1.98.68,3.24,1.23,3.77,1.66.8.63,1.21,1.43,1.21,2.41,0,1.21-.6,2.25-1.8,3.11s-2.87,1.29-5.01,1.29c-1.48,0-2.76-.2-3.84-.6-1.08-.4-1.85-.95-2.29-1.66-.45-.71-.65-1.52-.62-2.44Z"/>
        <path class="cls-1" d="M113.06,13.98h-3.54l3-11.45h-5.04l.6-2.3h13.54l-.6,2.3h-4.97l-2.99,11.45Z"/>
        <path class="cls-1" d="M120.25,13.98L123.83.23h12.74l-.6,2.3h-9.2l-.82,3.12h8.9l-.6,2.3h-8.9l-1.08,3.73h10l-.61,2.3h-13.42Z"/>
        <path class="cls-1" d="M146.14,13.98h-3.35l-.62-11.49-2.73,11.49h-3.19l3.59-13.75h5.04l.53,9.63L151.27.23h5.1l-3.6,13.75h-3.22l3.39-11.4-6.79,11.4Z"/>
      </g>
    </g>
  </g>
</svg>