<?xml version="1.0" encoding="UTF-8"?>
<svg id="Calque_2" data-name="Calque 2" xmlns="http://www.w3.org/2000/svg" viewBox="0 0 145.97 14.22">
  <defs>
    <style>
      .cls-1 {
        fill: #f7931e;
      }

      .cls-2 {
        fill: #ededed;
      }
    </style>
  </defs>
  <g id="Calque_2-2" data-name="Calque 2">
    <g>
      <path class="cls-2" d="M0,13.98V.23h5.19l3.12,9.38L11.39.23h5.2v13.74h-3.22V3.16l-3.41,10.82h-3.34L3.22,3.16v10.82H0Z"/>
      <path class="cls-2" d="M20.02.23h3.47v7.44c0,1.18.04,1.95.13,2.3.15.56.5,1.01,1.06,1.35s1.32.51,2.29.51,1.73-.16,2.23-.48c.5-.32.8-.72.9-1.19s.15-1.25.15-2.33V.23h3.47v7.22c0,1.65-.09,2.82-.28,3.5-.19.68-.53,1.26-1.04,1.73s-1.18.84-2.02,1.12-1.95.42-3.3.42c-1.64,0-2.88-.15-3.73-.46-.85-.3-1.52-.7-2.01-1.18s-.82-.99-.97-1.52c-.23-.79-.34-1.95-.34-3.49V.23Z"/>
      <path class="cls-2" d="M35.88,13.98v-2.5l9.02-8.92h-8V.23h12.57v2.16l-9.41,9.27h9.77v2.32h-13.96Z"/>
      <path class="cls-2" d="M51.93,13.98V.23h3.47v13.74h-3.47Z"/>
      <path class="cls-1" d="M67.82,13.98h-3.35l-.62-11.48-2.73,11.48h-3.19L61.51.23h5.04l.53,9.63L72.94.23h5.1l-3.6,13.74h-3.22l3.39-11.4-6.79,11.4Z"/>
      <path class="cls-1" d="M77.93,13.98L81.52.23h12.74l-.6,2.3h-9.2l-.82,3.12h8.89l-.6,2.3h-8.89l-1.08,3.73h10l-.61,2.3h-13.42Z"/>
      <path class="cls-1" d="M97.55,13.98h-3.54L97.61.23h7.63c1.31,0,2.33.11,3.06.32.73.21,1.32.61,1.77,1.19s.67,1.27.67,2.09c0,1.17-.44,2.13-1.31,2.89-.88.76-2.2,1.23-3.97,1.41.45.33.88.75,1.28,1.28.79,1.08,1.67,2.59,2.64,4.56h-3.8c-.3-.78-.9-1.98-1.79-3.63-.48-.89-1-1.48-1.55-1.79-.34-.18-.92-.27-1.76-.27h-1.44l-1.49,5.69ZM99.57,6.23h1.88c1.9,0,3.16-.09,3.78-.27.62-.18,1.11-.46,1.46-.85s.53-.79.53-1.22c0-.5-.25-.88-.76-1.12-.31-.15-.99-.23-2.03-.23h-3.89l-.96,3.69Z"/>
      <path class="cls-1" d="M123.71,9.03l3.56.43c-.7,1.54-1.74,2.72-3.13,3.54s-3.02,1.22-4.89,1.22c-2.1,0-3.74-.51-4.93-1.52-1.18-1.01-1.78-2.48-1.78-4.41,0-1.56.4-2.99,1.19-4.29s1.89-2.29,3.3-2.98,2.94-1.03,4.59-1.03c1.86,0,3.36.4,4.51,1.2s1.82,1.88,2.03,3.26l-3.39.26c-.19-.8-.55-1.38-1.08-1.74s-1.25-.54-2.14-.54c-.98,0-1.89.24-2.74.71s-1.53,1.22-2.03,2.23-.76,2.02-.76,3.02c0,1.1.33,1.95.99,2.55.66.6,1.48.9,2.47.9.91,0,1.75-.24,2.51-.71.76-.47,1.33-1.18,1.71-2.11Z"/>
      <path class="cls-1" d="M140.45,7.84h-6.64l-1.61,6.14h-3.54l3.6-13.74h3.53l-1.38,5.31h6.64l1.39-5.31h3.53l-3.59,13.74h-3.54l1.61-6.14Z"/>
    </g>
  </g>
</svg>