<?xml version="1.0" encoding="UTF-8"?>
<svg id="Calque_2" data-name="Calque 2" xmlns="http://www.w3.org/2000/svg" viewBox="0 0 112.65 13.98">
  <defs>
    <style>
      .cls-1 {
        fill: #ededed;
      }

      .cls-2 {
        fill: #9800eb;
      }
    </style>
  </defs>
  <g id="Calque_2-2" data-name="Calque 2">
    <g>
      <path class="cls-1" d="M0,13.74V0h5.19l3.12,9.38L11.39,0h5.2v13.74h-3.22V2.93l-3.41,10.82h-3.34L3.22,2.93v10.82H0Z"/>
      <path class="cls-1" d="M20.02,0h3.47v7.44c0,1.18.04,1.95.13,2.3.15.56.5,1.01,1.06,1.35s1.32.51,2.29.51,1.73-.16,2.23-.48c.5-.32.8-.72.9-1.19s.15-1.25.15-2.33V0h3.47v7.22c0,1.65-.09,2.82-.28,3.5-.19.68-.53,1.26-1.04,1.73s-1.18.84-2.02,1.12-1.95.42-3.3.42c-1.64,0-2.88-.15-3.73-.46-.85-.3-1.52-.7-2.01-1.18s-.82-.99-.97-1.52c-.23-.79-.34-1.95-.34-3.49V0Z"/>
      <path class="cls-1" d="M35.88,13.74v-2.5l9.02-8.92h-8V0h12.57v2.16l-9.41,9.27h9.77v2.32h-13.96Z"/>
      <path class="cls-1" d="M51.93,13.74V0h3.47v13.74h-3.47Z"/>
      <path class="cls-2" d="M74.27,13.74h-3.57l-.39-10.05-6.26,10.05h-3.64l-.64-13.74h3.46l.15,9.62,5.89-9.62h3.83l.4,9.52,5.66-9.52h3.42l-8.31,13.74Z"/>
      <path class="cls-2" d="M80.59,13.74l3.59-13.74h12.74l-.6,2.3h-9.2l-.82,3.12h8.89l-.6,2.3h-8.89l-1.08,3.73h10l-.61,2.3h-13.42Z"/>
      <path class="cls-2" d="M96.57,13.74l3.6-13.74h5.87c1.27,0,2.16.03,2.67.09.84.09,1.56.28,2.14.56s1.03.66,1.34,1.12.46.99.46,1.56c0,.76-.27,1.42-.8,1.98-.53.56-1.35.98-2.46,1.27.88.19,1.57.54,2.07,1.04s.74,1.06.74,1.68c0,.83-.29,1.61-.88,2.35s-1.39,1.27-2.43,1.6-2.44.49-4.23.49h-8.1ZM100.69,11.53h3.41c1.43,0,2.39-.07,2.88-.22.49-.15.88-.39,1.17-.73.29-.34.44-.69.44-1.07,0-.46-.21-.83-.63-1.13s-1.12-.45-2.11-.45h-4.22l-.94,3.59ZM102.25,5.55h2.7c1.21,0,2.08-.07,2.61-.21.53-.14.93-.36,1.2-.67s.4-.65.4-1-.12-.64-.38-.86c-.25-.23-.61-.38-1.07-.45-.26-.04-.88-.06-1.86-.06h-2.74l-.86,3.25Z"/>
    </g>
  </g>
</svg>