<?xml version="1.0" encoding="UTF-8"?>
<svg id="Calque_2" data-name="Calque 2" xmlns="http://www.w3.org/2000/svg" viewBox="0 0 113.19 14.22">
  <defs>
    <style>
      .cls-1 {
        fill: #ff2d55;
      }

      .cls-2 {
        fill: #ededed;
      }
    </style>
  </defs>
  <g id="Calque_2-2" data-name="Calque 2">
    <g>
      <path class="cls-2" d="M0,13.98V.23h5.19l3.12,9.38L11.39.23h5.2v13.74h-3.22V3.16l-3.41,10.82h-3.34L3.22,3.16v10.82H0Z"/>
      <path class="cls-2" d="M20.02.23h3.47v7.44c0,1.18.04,1.95.13,2.3.15.56.5,1.01,1.06,1.35s1.32.51,2.29.51,1.73-.16,2.23-.48c.5-.32.8-.72.9-1.19s.15-1.25.15-2.33V.23h3.47v7.22c0,1.65-.09,2.82-.28,3.5-.19.68-.53,1.26-1.04,1.73s-1.18.84-2.02,1.12-1.95.42-3.3.42c-1.64,0-2.88-.15-3.73-.46-.85-.3-1.52-.7-2.01-1.18s-.82-.99-.97-1.52c-.23-.79-.34-1.95-.34-3.49V.23Z"/>
      <path class="cls-2" d="M35.88,13.98v-2.5l9.02-8.92h-8V.23h12.57v2.16l-9.41,9.27h9.77v2.32h-13.96Z"/>
      <path class="cls-2" d="M51.93,13.98V.23h3.47v13.74h-3.47Z"/>
      <path class="cls-1" d="M61.46,13.98h-3.54L61.52.23h6.98c1.24,0,2.22.12,2.95.35s1.29.62,1.72,1.16c.42.54.63,1.19.63,1.94,0,.69-.17,1.37-.5,2.03s-.75,1.18-1.24,1.58c-.49.39-1.01.69-1.58.89s-1.32.36-2.27.46c-.55.06-1.59.09-3.12.09h-2.26l-1.37,5.24ZM63.42,6.46h1.09c1.87,0,3.11-.09,3.74-.28s1.12-.49,1.48-.9c.36-.41.54-.87.54-1.36,0-.33-.09-.6-.28-.82s-.44-.37-.77-.46-1.07-.15-2.22-.15h-2.53l-1.04,3.97Z"/>
      <path class="cls-1" d="M73.79,13.98L77.39.23h3.53l-3.59,13.74h-3.54Z"/>
      <path class="cls-1" d="M93.06,9.03l3.56.43c-.7,1.54-1.74,2.72-3.13,3.54s-3.02,1.22-4.89,1.22c-2.1,0-3.74-.51-4.93-1.52-1.18-1.01-1.78-2.48-1.78-4.41,0-1.56.4-2.99,1.19-4.29s1.89-2.29,3.3-2.98,2.94-1.03,4.59-1.03c1.86,0,3.36.4,4.51,1.2s1.82,1.88,2.03,3.26l-3.39.26c-.19-.8-.55-1.38-1.08-1.74s-1.25-.54-2.14-.54c-.98,0-1.89.24-2.74.71s-1.53,1.22-2.03,2.23-.76,2.02-.76,3.02c0,1.1.33,1.95.99,2.55.66.6,1.48.9,2.47.9.91,0,1.75-.24,2.51-.71.76-.47,1.33-1.18,1.71-2.11Z"/>
      <path class="cls-1" d="M98.48,9.53l3.36-.14c.05.86.23,1.43.55,1.73.52.49,1.47.73,2.86.73,1.16,0,1.99-.17,2.51-.5s.77-.73.77-1.2c0-.41-.21-.75-.63-1.03-.3-.21-1.11-.54-2.44-1s-2.3-.85-2.92-1.16c-.61-.31-1.1-.71-1.45-1.2-.35-.49-.53-1.07-.53-1.73,0-1.16.52-2.12,1.57-2.88,1.05-.76,2.56-1.14,4.55-1.14s3.58.38,4.68,1.13,1.71,1.76,1.82,3.02l-3.39.12c-.09-.66-.38-1.16-.89-1.51-.51-.35-1.26-.52-2.25-.52s-1.67.14-2.09.41c-.42.28-.63.62-.63,1.04,0,.39.19.72.57.97.38.26,1.23.62,2.54,1.08,1.98.68,3.23,1.23,3.77,1.66.8.62,1.21,1.43,1.21,2.41,0,1.21-.6,2.25-1.8,3.11s-2.87,1.29-5.01,1.29c-1.48,0-2.76-.2-3.84-.6-1.08-.4-1.85-.95-2.29-1.65s-.65-1.52-.62-2.44Z"/>
    </g>
  </g>
</svg>