<?xml version="1.0" encoding="UTF-8"?>
<svg id="Calque_2" data-name="Calque 2" xmlns="http://www.w3.org/2000/svg" viewBox="0 0 267.39 86.7">
  <defs>
    <style>
      .cls-1 {
        fill: #ededed;
      }
    </style>
  </defs>
  <g id="Calque_2-2" data-name="Calque 2">
    <g>
      <g>
        <polygon class="cls-1" points="106.62 0 84.36 55.49 73.23 55.49 50.97 0 63.66 0 78.79 38.84 93.58 0 106.62 0"/>
        <polygon class="cls-1" points="42.58 55.49 27.81 16.67 12.69 55.49 0 55.49 22.25 .03 33.37 .03 55.62 55.49 42.58 55.49"/>
      </g>
      <g>
        <g>
          <path class="cls-1" d="M114.25,55.49V0h11.1l33.29,39.36V0h11.1v55.49h-11.1l-33.29-38.15v38.15h-11.1Z"/>
          <path class="cls-1" d="M196.36,0v55.49h-11.1V0h11.1Z"/>
          <path class="cls-1" d="M234.1,33.29h-11.1v22.19h-11.1V0h44.39c7.4,0,11.1,3.7,11.1,11.1v11.1c0,7.4-3.64,11.1-10.92,11.1h-8.67l19.59,22.19h-13.7l-19.59-22.19ZM223,11.1v11.1h33.29v-11.1h-33.29Z"/>
        </g>
        <g>
          <path class="cls-1" d="M74.66,80.55l2.83-.2c.13.91.45,1.65.94,2.23.49.58,1.25,1.05,2.28,1.41,1.03.36,2.19.54,3.48.54,1.15,0,2.16-.14,3.03-.41s1.53-.65,1.96-1.12c.43-.47.64-.99.64-1.55s-.21-1.07-.62-1.49-1.09-.78-2.04-1.07c-.61-.19-1.96-.49-4.04-.89s-3.54-.78-4.38-1.13c-1.08-.45-1.89-1.02-2.42-1.69-.53-.67-.8-1.42-.8-2.26,0-.92.33-1.78.97-2.57.65-.8,1.6-1.4,2.85-1.81s2.64-.62,4.17-.62c1.68,0,3.17.21,4.45.65,1.29.43,2.27,1.07,2.96,1.92.69.84,1.06,1.8,1.11,2.86l-2.88.17c-.16-1.15-.68-2.01-1.57-2.6-.89-.59-2.21-.88-3.96-.88s-3.14.26-3.97.8c-.83.53-1.25,1.18-1.25,1.93,0,.65.3,1.19.88,1.61.58.42,2.09.85,4.53,1.29,2.44.44,4.11.83,5.02,1.16,1.32.49,2.3,1.1,2.92,1.85s.94,1.61.94,2.58-.34,1.87-1.04,2.73-1.68,1.52-2.98,1.99c-1.29.47-2.75.71-4.37.71-2.06,0-3.78-.24-5.16-.72-1.39-.48-2.48-1.2-3.27-2.16-.79-.96-1.21-2.05-1.25-3.26Z"/>
          <path class="cls-1" d="M102.61,86.39v-16.01h-7.48v-2.14h17.99v2.14h-7.51v16.01h-3.01Z"/>
          <path class="cls-1" d="M131.09,68.23h3v10.49c0,1.82-.26,3.27-.77,4.35s-1.45,1.94-2.79,2.62c-1.35.67-3.11,1.01-5.3,1.01s-3.87-.29-5.22-.88c-1.35-.59-2.32-1.44-2.89-2.55-.58-1.11-.87-2.63-.87-4.55v-10.49h3v10.48c0,1.58.18,2.74.55,3.48.37.75.99,1.33,1.89,1.73.89.4,1.98.61,3.27.61,2.21,0,3.78-.4,4.72-1.2.94-.8,1.41-2.34,1.41-4.62v-10.48Z"/>
          <path class="cls-1" d="M139.1,86.39v-18.16h7.82c1.77,0,3.11.09,4.04.26,1.3.24,2.41.67,3.33,1.3,1.2.81,2.09,1.84,2.69,3.1.59,1.26.89,2.7.89,4.32,0,1.38-.2,2.6-.6,3.67-.4,1.07-.92,1.94-1.55,2.64-.63.7-1.32,1.25-2.07,1.65-.75.4-1.65.71-2.71.91-1.06.21-2.27.31-3.65.31h-8.19ZM142.1,84.24h4.85c1.49,0,2.67-.11,3.52-.33.85-.22,1.53-.54,2.04-.94.71-.57,1.27-1.34,1.66-2.3.4-.96.6-2.13.6-3.5,0-1.9-.39-3.36-1.17-4.38-.78-1.02-1.73-1.7-2.84-2.05-.81-.25-2.1-.37-3.88-.37h-4.77v13.87Z"/>
          <path class="cls-1" d="M162.5,86.39v-18.16h3.01v18.16h-3.01Z"/>
          <path class="cls-1" d="M169.89,77.54c0-3.01,1.01-5.38,3.03-7.08,2.02-1.71,4.63-2.56,7.84-2.56,2.09,0,3.98.4,5.66,1.2,1.68.8,2.97,1.92,3.85,3.35.88,1.43,1.33,3.06,1.33,4.88s-.47,3.49-1.4,4.94c-.93,1.45-2.24,2.55-3.95,3.3s-3.54,1.12-5.51,1.12c-2.14,0-4.05-.41-5.73-1.24-1.68-.83-2.96-1.95-3.82-3.38-.87-1.43-1.3-2.94-1.3-4.53ZM172.98,77.58c0,2.19.74,3.91,2.21,5.17,1.47,1.26,3.32,1.89,5.53,1.89s4.12-.64,5.58-1.91c1.46-1.27,2.19-3.08,2.19-5.41,0-1.48-.31-2.77-.94-3.87-.63-1.1-1.54-1.96-2.74-2.56-1.2-.61-2.55-.91-4.05-.91-2.13,0-3.96.58-5.49,1.75-1.53,1.17-2.3,3.12-2.3,5.85Z"/>
        </g>
      </g>
    </g>
  </g>
</svg>