<?xml version="1.0" encoding="UTF-8"?>
<svg id="Calque_2" data-name="Calque 2" xmlns="http://www.w3.org/2000/svg" viewBox="0 0 139.9 14.32">
  <defs>
    <style>
      .cls-1 {
        fill: #07e7c6;
      }

      .cls-2 {
        fill: #ededed;
      }
    </style>
  </defs>
  <g id="Calque_2-2" data-name="Calque 2">
    <g>
      <g>
        <path class="cls-2" d="M0,14.07V.24h5.23l3.14,9.44L11.47.24h5.24v13.83h-3.24V3.18l-3.43,10.89h-3.36L3.24,3.18v10.89H0Z"/>
        <path class="cls-2" d="M20.15.24h3.49v7.49c0,1.19.04,1.96.13,2.31.15.57.51,1.02,1.07,1.36.56.34,1.33.51,2.31.51s1.74-.16,2.24-.49.81-.72.91-1.19.15-1.25.15-2.35V.24h3.49v7.27c0,1.66-.09,2.83-.28,3.52s-.54,1.26-1.04,1.74-1.19.85-2.04,1.13c-.85.28-1.96.42-3.33.42-1.65,0-2.9-.15-3.76-.46-.85-.3-1.53-.7-2.02-1.19s-.82-1-.98-1.53c-.23-.79-.34-1.96-.34-3.51V.24Z"/>
        <path class="cls-2" d="M36.12,14.07v-2.52l9.08-8.97h-8.06V.24h12.66v2.17l-9.47,9.33h9.84v2.33h-14.05Z"/>
        <path class="cls-2" d="M52.27,14.07V.24h3.49v13.83h-3.49Z"/>
      </g>
      <g>
        <path class="cls-1" d="M65.43,14.07h-3.56l3.02-11.52h-5.07l.6-2.31h13.62l-.6,2.31h-5l-3.01,11.52Z"/>
        <path class="cls-1" d="M73.34,8.64c0-.82.15-1.68.46-2.59.4-1.21,1.01-2.27,1.83-3.16.82-.89,1.86-1.6,3.11-2.12s2.67-.78,4.27-.78c2.14,0,3.87.53,5.18,1.6s1.98,2.47,1.98,4.23c0,1.46-.43,2.87-1.29,4.24-.86,1.37-2.02,2.42-3.49,3.15-1.47.74-3.13,1.1-4.99,1.1-1.61,0-2.96-.29-4.06-.88-1.09-.59-1.87-1.31-2.32-2.18s-.68-1.74-.68-2.62ZM76.86,8.59c0,.95.36,1.75,1.09,2.39.72.64,1.67.96,2.85.96.96,0,1.88-.25,2.77-.76.88-.51,1.62-1.27,2.19-2.3s.87-2.03.87-3.01c0-1.09-.37-1.94-1.1-2.56s-1.66-.93-2.8-.93c-1.74,0-3.15.65-4.24,1.94s-1.63,2.72-1.63,4.26Z"/>
        <path class="cls-1" d="M92.13,8.64c0-.82.15-1.68.46-2.59.4-1.21,1.01-2.27,1.83-3.16.82-.89,1.86-1.6,3.11-2.12s2.67-.78,4.27-.78c2.14,0,3.87.53,5.18,1.6s1.98,2.47,1.98,4.23c0,1.46-.43,2.87-1.29,4.24-.86,1.37-2.02,2.42-3.49,3.15-1.47.74-3.13,1.1-4.99,1.1-1.61,0-2.96-.29-4.06-.88-1.09-.59-1.87-1.31-2.32-2.18s-.68-1.74-.68-2.62ZM95.65,8.59c0,.95.36,1.75,1.09,2.39.72.64,1.67.96,2.85.96.96,0,1.88-.25,2.77-.76.88-.51,1.62-1.27,2.19-2.3s.87-2.03.87-3.01c0-1.09-.37-1.94-1.1-2.56s-1.66-.93-2.8-.93c-1.74,0-3.15.65-4.24,1.94s-1.63,2.72-1.63,4.26Z"/>
        <path class="cls-1" d="M109.9,14.07L113.52.24h3.55l-3.01,11.52h8.8l-.6,2.31h-12.36Z"/>
        <path class="cls-1" d="M125.1,9.59l3.39-.14c.05.86.23,1.44.55,1.75.52.49,1.48.74,2.88.74,1.16,0,2.01-.17,2.52-.5.52-.33.78-.74.78-1.21,0-.41-.21-.75-.64-1.04-.3-.21-1.12-.54-2.46-1.01-1.34-.47-2.32-.85-2.94-1.17-.62-.31-1.1-.72-1.46-1.21s-.53-1.08-.53-1.75c0-1.16.53-2.13,1.58-2.9,1.05-.77,2.58-1.15,4.58-1.15s3.6.38,4.71,1.14c1.11.76,1.72,1.77,1.83,3.04l-3.41.12c-.09-.66-.39-1.17-.9-1.52-.51-.35-1.27-.53-2.26-.53s-1.69.14-2.11.42-.63.63-.63,1.05c0,.4.19.72.58.98.39.26,1.24.63,2.56,1.09,1.99.69,3.26,1.24,3.8,1.67.81.63,1.21,1.44,1.21,2.43,0,1.22-.6,2.26-1.81,3.13s-2.89,1.3-5.04,1.3c-1.49,0-2.77-.2-3.86-.6-1.09-.4-1.86-.95-2.31-1.67-.45-.71-.66-1.53-.63-2.45Z"/>
      </g>
    </g>
  </g>
</svg>